<?xml version="1.0" encoding="UTF-8"?>
<svg id="Layer_1" data-name="Layer 1" xmlns="http://www.w3.org/2000/svg" viewBox="0 0 246.49 38.24">
  <defs>
    <style>
      .cls-1 {
        font-size: 5.68px;
      }

      .cls-1, .cls-2 {
        fill: #00aeef;
      }

      .cls-3 {
        fill: #0e5b76;
      }
    </style>
  </defs>
  <path class="cls-3" d="M85.89,19.73c0,2.99-.57,5.6-1.71,7.85-1.14,2.24-2.78,3.97-4.92,5.17-2.14,1.2-4.66,1.81-7.57,1.81s-5.47-.6-7.59-1.79c-2.13-1.19-3.76-2.91-4.88-5.16-1.12-2.25-1.68-4.88-1.68-7.88,0-4.57,1.25-8.14,3.75-10.72s5.98-3.86,10.44-3.86c2.91,0,5.43.58,7.57,1.73,2.14,1.16,3.77,2.84,4.9,5.04,1.13,2.2,1.69,4.81,1.69,7.81ZM81.94,19.73c0-3.56-.89-6.35-2.67-8.38-1.78-2.03-4.29-3.04-7.53-3.04s-5.8,1-7.58,3-2.68,4.81-2.68,8.42.9,6.43,2.71,8.53c1.8,2.1,4.31,3.15,7.51,3.15s5.83-1.02,7.6-3.05,2.65-4.91,2.65-8.63Z"/>
  <path class="cls-2" d="M103.94,8.31c-3.16,0-5.62,1.02-7.38,3.05-1.76,2.04-2.64,4.82-2.64,8.37s.92,6.32,2.75,8.45,4.31,3.19,7.43,3.19c4,0,7.01-1.98,9.02-5.94l3.16,1.58c-1.18,2.46-2.83,4.33-4.96,5.62-2.13,1.29-4.6,1.93-7.41,1.93s-5.37-.6-7.47-1.79c-2.1-1.2-3.71-2.91-4.81-5.13-1.1-2.22-1.65-4.86-1.65-7.9,0-4.56,1.23-8.13,3.69-10.71s5.87-3.87,10.22-3.87c3.04,0,5.58.59,7.63,1.78s3.54,2.95,4.5,5.29l-3.67,1.22c-.66-1.66-1.73-2.93-3.19-3.81-1.47-.88-3.21-1.32-5.22-1.32Z"/>
  <path class="cls-2" d="M203.28,34.15V15.08c0-2.11.06-4.14.18-6.09-.66,2.42-1.26,4.31-1.78,5.68l-7.38,19.47h-2.72l-7.48-19.47-1.14-3.45-.67-2.23.06,2.25.08,3.83v19.06h-3.45V5.57h5.09l7.61,19.81c.27.8.53,1.65.78,2.57.25.91.42,1.57.5,1.98.11-.54.33-1.36.68-2.46.34-1.1.58-1.79.7-2.08l7.46-19.81h4.97v28.58h-3.49Z"/>
  <path class="cls-2" d="M134.02,5.57h-4.4l-11.66,28.58h4.02l3.29-8.36h.01l1.16-3.02h0l.09-.24,1.22-3.18h.01l2.32-5.97c.66-1.76,1.16-3.2,1.5-4.32l.18-.57.55,1.68c.38,1.18.76,2.23,1.14,3.16l3.67,9.43h-5.64l-2.94,3.02h9.74l3.27,8.36h3.95l-11.48-28.58Z"/>
  <path class="cls-2" d="M226.32,5.57h-4.4l-11.66,28.58h4.02l3.29-8.36h.02l1.16-3.02h-.01l1.16-2.98.17-.44h0l2.32-5.97c.66-1.76,1.16-3.2,1.5-4.32l.18-.57.55,1.68c.38,1.18.76,2.23,1.14,3.16l3.67,9.43h-5.63l-2.94,3.02h9.73l3.27,8.36h3.95l-11.48-28.58Z"/>
  <path class="cls-3" d="M20.75,7.82c-1.76-1.5-4.24-2.25-7.44-2.25H1.28v28.58h3.87V8.67h7.69c4.43,0,6.65,1.85,6.65,5.54s-2.14,5.71-6.4,5.73l-3.59,3.07h4.05c3.03,0,5.43-.8,7.19-2.39,1.76-1.6,2.65-3.74,2.65-6.45s-.88-4.85-2.64-6.35Z"/>
  <path class="cls-2" d="M165.53,21.84c2.18-.38,3.88-1.29,5.12-2.74,1.24-1.45,1.86-3.23,1.86-5.35,0-2.57-.88-4.57-2.63-6.01-1.75-1.44-4.24-2.16-7.45-2.16h-13.45v28.58h3.87V8.67h9.19c2.12,0,3.75.44,4.88,1.31,1.13.87,1.69,2.14,1.69,3.8s-.56,3.05-1.67,4.01c-1.12.95-2.69,1.43-4.74,1.43h-1.88l-3.05,3.06h4.48l7.42,11.86h4.46l-8.11-12.31Z"/>
  <path class="cls-3" d="M45.53,21.84c2.18-.38,3.88-1.29,5.12-2.74,1.24-1.45,1.86-3.23,1.86-5.35,0-2.57-.88-4.57-2.63-6.01-1.75-1.44-4.24-2.16-7.45-2.16h-13.45v28.58h3.87V8.67h9.19c2.12,0,3.75.44,4.88,1.31,1.13.87,1.69,2.14,1.69,3.8s-.56,3.05-1.67,4.01c-1.12.95-2.69,1.43-4.74,1.43h-3.24l-3.05,3.06h5.84l7.42,11.86h4.46l-8.11-12.31Z"/>
  <text class="cls-1" transform="translate(237.12 9.58)"><tspan x="0" y="0">TM</tspan></text>
</svg>